<mxfile host="app.diagrams.net" modified="2024-06-12T07:25:43.805Z" agent="Mozilla/5.0 (Windows NT 10.0; Win64; x64) AppleWebKit/537.36 (KHTML, like Gecko) Chrome/125.0.0.0 Safari/537.36" etag="6H6tAvJO5VEddly_cszO" version="24.5.3" type="github">
  <diagram name="第 1 页" id="opzadTKSw6LAh6EvmkGn">
    <mxGraphModel dx="2790" dy="2892" grid="1" gridSize="10" guides="1" tooltips="1" connect="1" arrows="1" fold="1" page="1" pageScale="1" pageWidth="1169" pageHeight="827" math="0" shadow="0">
      <root>
        <mxCell id="0" />
        <mxCell id="1" parent="0" />
        <mxCell id="1IXH5n6ofpuX0fbqJjtk-2" value="&lt;h1 style=&quot;margin-top: 0px;&quot;&gt;&lt;span style=&quot;background-color: initial;&quot;&gt;Ret2Libc2&lt;/span&gt;&lt;br&gt;&lt;/h1&gt;" style="text;html=1;whiteSpace=wrap;overflow=hidden;rounded=0;" vertex="1" parent="1">
          <mxGeometry x="180" y="-50" width="120" height="40" as="geometry" />
        </mxCell>
        <mxCell id="1IXH5n6ofpuX0fbqJjtk-34" style="edgeStyle=orthogonalEdgeStyle;rounded=0;orthogonalLoop=1;jettySize=auto;html=1;" edge="1" parent="1" source="1IXH5n6ofpuX0fbqJjtk-3" target="1IXH5n6ofpuX0fbqJjtk-25">
          <mxGeometry relative="1" as="geometry" />
        </mxCell>
        <mxCell id="1IXH5n6ofpuX0fbqJjtk-3" value="" style="rounded=0;whiteSpace=wrap;html=1;fillColor=#f5f5f5;fontColor=#333333;strokeColor=#666666;" vertex="1" parent="1">
          <mxGeometry x="160" y="130" width="340" height="520" as="geometry" />
        </mxCell>
        <mxCell id="1IXH5n6ofpuX0fbqJjtk-4" value="Stack" style="rounded=0;whiteSpace=wrap;html=1;fillColor=#f5f5f5;fontColor=#333333;strokeColor=#666666;" vertex="1" parent="1">
          <mxGeometry x="160" y="130" width="340" height="50" as="geometry" />
        </mxCell>
        <mxCell id="1IXH5n6ofpuX0fbqJjtk-15" value="" style="rounded=0;whiteSpace=wrap;html=1;fillColor=#dae8fc;strokeColor=#6c8ebf;" vertex="1" parent="1">
          <mxGeometry x="182.5" y="330" width="295" height="280" as="geometry" />
        </mxCell>
        <mxCell id="1IXH5n6ofpuX0fbqJjtk-5" value=".&lt;div&gt;.&lt;/div&gt;&lt;div&gt;.&lt;/div&gt;&lt;div&gt;.&lt;/div&gt;" style="rounded=0;whiteSpace=wrap;html=1;fillColor=#f8cecc;strokeColor=#b85450;" vertex="1" parent="1">
          <mxGeometry x="195" y="450" width="270" height="100" as="geometry" />
        </mxCell>
        <mxCell id="1IXH5n6ofpuX0fbqJjtk-8" value="return address" style="rounded=0;whiteSpace=wrap;html=1;" vertex="1" parent="1">
          <mxGeometry x="187.5" y="280" width="285" height="50" as="geometry" />
        </mxCell>
        <mxCell id="1IXH5n6ofpuX0fbqJjtk-10" value="ESP" style="rounded=0;whiteSpace=wrap;html=1;" vertex="1" parent="1">
          <mxGeometry x="195" y="550" width="270" height="50" as="geometry" />
        </mxCell>
        <mxCell id="1IXH5n6ofpuX0fbqJjtk-12" value="EBP" style="rounded=0;whiteSpace=wrap;html=1;" vertex="1" parent="1">
          <mxGeometry x="195" y="400" width="270" height="50" as="geometry" />
        </mxCell>
        <mxCell id="1IXH5n6ofpuX0fbqJjtk-13" value="&lt;div&gt;&lt;br&gt;&lt;/div&gt;&lt;div&gt;&lt;br&gt;&lt;/div&gt;&lt;div&gt;&lt;br&gt;&lt;/div&gt;&lt;div&gt;&lt;br&gt;&lt;/div&gt;&lt;div&gt;.&lt;/div&gt;&lt;div&gt;.&lt;/div&gt;" style="rounded=0;whiteSpace=wrap;html=1;fillColor=#d5e8d4;strokeColor=#82b366;" vertex="1" parent="1">
          <mxGeometry x="160" y="180" width="340" height="100" as="geometry" />
        </mxCell>
        <mxCell id="1IXH5n6ofpuX0fbqJjtk-17" value="gets函数" style="text;html=1;align=center;verticalAlign=middle;whiteSpace=wrap;rounded=0;" vertex="1" parent="1">
          <mxGeometry x="300" y="350" width="60" height="30" as="geometry" />
        </mxCell>
        <mxCell id="1IXH5n6ofpuX0fbqJjtk-35" style="edgeStyle=orthogonalEdgeStyle;rounded=0;orthogonalLoop=1;jettySize=auto;html=1;" edge="1" parent="1" source="1IXH5n6ofpuX0fbqJjtk-24">
          <mxGeometry relative="1" as="geometry">
            <mxPoint x="599.9999999999998" y="799.9999999999998" as="targetPoint" />
          </mxGeometry>
        </mxCell>
        <mxCell id="1IXH5n6ofpuX0fbqJjtk-24" value="进行ROP栈溢出" style="rounded=0;whiteSpace=wrap;html=1;" vertex="1" parent="1">
          <mxGeometry x="540" y="360" width="120" height="60" as="geometry" />
        </mxCell>
        <mxCell id="1IXH5n6ofpuX0fbqJjtk-44" style="edgeStyle=orthogonalEdgeStyle;rounded=0;orthogonalLoop=1;jettySize=auto;html=1;" edge="1" parent="1" source="1IXH5n6ofpuX0fbqJjtk-25" target="1IXH5n6ofpuX0fbqJjtk-43">
          <mxGeometry relative="1" as="geometry" />
        </mxCell>
        <mxCell id="1IXH5n6ofpuX0fbqJjtk-25" value="" style="rounded=0;whiteSpace=wrap;html=1;fillColor=#f5f5f5;fontColor=#333333;strokeColor=#666666;" vertex="1" parent="1">
          <mxGeometry x="700" y="55" width="340" height="670" as="geometry" />
        </mxCell>
        <mxCell id="1IXH5n6ofpuX0fbqJjtk-26" value="Stack" style="rounded=0;whiteSpace=wrap;html=1;fillColor=#f5f5f5;fontColor=#333333;strokeColor=#666666;" vertex="1" parent="1">
          <mxGeometry x="700" y="55" width="340" height="50" as="geometry" />
        </mxCell>
        <mxCell id="1IXH5n6ofpuX0fbqJjtk-27" value="" style="rounded=0;whiteSpace=wrap;html=1;fillColor=#dae8fc;strokeColor=#6c8ebf;" vertex="1" parent="1">
          <mxGeometry x="722.5" y="410" width="295" height="310" as="geometry" />
        </mxCell>
        <mxCell id="1IXH5n6ofpuX0fbqJjtk-28" value="a&lt;div&gt;a&lt;/div&gt;&lt;div&gt;a&lt;/div&gt;&lt;div&gt;.&lt;/div&gt;&lt;div&gt;.&lt;/div&gt;&lt;div&gt;.&lt;/div&gt;" style="rounded=0;whiteSpace=wrap;html=1;fillColor=#f8cecc;strokeColor=#b85450;" vertex="1" parent="1">
          <mxGeometry x="735" y="530" width="270" height="100" as="geometry" />
        </mxCell>
        <mxCell id="1IXH5n6ofpuX0fbqJjtk-29" value="gets_plt" style="rounded=0;whiteSpace=wrap;html=1;" vertex="1" parent="1">
          <mxGeometry x="727.5" y="360" width="285" height="50" as="geometry" />
        </mxCell>
        <mxCell id="1IXH5n6ofpuX0fbqJjtk-30" value="ESP" style="rounded=0;whiteSpace=wrap;html=1;" vertex="1" parent="1">
          <mxGeometry x="735" y="630" width="270" height="50" as="geometry" />
        </mxCell>
        <mxCell id="1IXH5n6ofpuX0fbqJjtk-31" value="a&lt;div&gt;a&lt;/div&gt;&lt;div&gt;a&lt;/div&gt;" style="rounded=0;whiteSpace=wrap;html=1;" vertex="1" parent="1">
          <mxGeometry x="735" y="480" width="270" height="50" as="geometry" />
        </mxCell>
        <mxCell id="1IXH5n6ofpuX0fbqJjtk-32" value="&lt;div&gt;&lt;br&gt;&lt;/div&gt;&lt;div&gt;&lt;br&gt;&lt;/div&gt;&lt;div&gt;&lt;br&gt;&lt;/div&gt;&lt;div&gt;&lt;br&gt;&lt;/div&gt;&lt;div&gt;.&lt;/div&gt;&lt;div&gt;.&lt;/div&gt;" style="rounded=0;whiteSpace=wrap;html=1;fillColor=#d5e8d4;strokeColor=#82b366;" vertex="1" parent="1">
          <mxGeometry x="700" y="105" width="340" height="105" as="geometry" />
        </mxCell>
        <mxCell id="1IXH5n6ofpuX0fbqJjtk-33" value="gets函数" style="text;html=1;align=center;verticalAlign=middle;whiteSpace=wrap;rounded=0;" vertex="1" parent="1">
          <mxGeometry x="840" y="430" width="60" height="30" as="geometry" />
        </mxCell>
        <mxCell id="1IXH5n6ofpuX0fbqJjtk-37" value="&lt;h1 style=&quot;margin-top: 0px;&quot;&gt;&lt;div style=&quot;color: #ffffff;background-color: #2d2b55;font-family: &#39;Fira Code&#39;, Consolas, &#39;Courier New&#39;, monospace;font-weight: normal;font-size: 14px;line-height: 19px;white-space: pre;&quot;&gt;&lt;div&gt;&lt;br&gt;&lt;/div&gt;&lt;div&gt;payload &lt;span style=&quot;color: #ff9d00;&quot;&gt;=&lt;/span&gt; &lt;span style=&quot;color: #fad000;&quot;&gt;flat&lt;/span&gt;&lt;span style=&quot;color: #e1efff;&quot;&gt;([&lt;/span&gt;&lt;span style=&quot;color: #ff9d00;&quot;&gt;b&lt;/span&gt;&lt;span style=&quot;color: #92fc79;&quot;&gt;&quot;&lt;/span&gt;&lt;span style=&quot;color: #a5ff90;&quot;&gt;a&lt;/span&gt;&lt;span style=&quot;color: #92fc79;&quot;&gt;&quot;&lt;/span&gt;&lt;span style=&quot;color: #9effff;&quot;&gt; &lt;/span&gt;&lt;span style=&quot;color: #ff9d00;&quot;&gt;*&lt;/span&gt;&lt;span style=&quot;color: #9effff;&quot;&gt; &lt;/span&gt;&lt;span style=&quot;color: #ff628c;&quot;&gt;112&lt;/span&gt;&lt;span style=&quot;color: #e1efff;&quot;&gt;,&lt;/span&gt;&lt;span style=&quot;color: #9effff;&quot;&gt; gets_plt&lt;/span&gt;&lt;span style=&quot;color: #e1efff;&quot;&gt;,&lt;/span&gt;&lt;span style=&quot;color: #9effff;&quot;&gt; system_plt&lt;/span&gt;&lt;span style=&quot;color: #e1efff;&quot;&gt;,&lt;/span&gt;&lt;span style=&quot;color: #9effff;&quot;&gt; buf2&lt;/span&gt;&lt;span style=&quot;color: #e1efff;&quot;&gt;,&lt;/span&gt;&lt;span style=&quot;color: #9effff;&quot;&gt; buf2&lt;/span&gt;&lt;span style=&quot;color: #e1efff;&quot;&gt;])&lt;/span&gt;&lt;/div&gt;&lt;br&gt;&lt;div&gt;io&lt;span style=&quot;color: #e1efff;&quot;&gt;.&lt;/span&gt;&lt;span style=&quot;color: #fad000;&quot;&gt;sendline&lt;/span&gt;&lt;span style=&quot;color: #e1efff;&quot;&gt;(&lt;/span&gt;&lt;span style=&quot;color: #9effff;&quot;&gt;payload&lt;/span&gt;&lt;span style=&quot;color: #e1efff;&quot;&gt;)&lt;/span&gt;&lt;/div&gt;&lt;div&gt;&lt;br&gt;&lt;/div&gt;&lt;/div&gt;&lt;/h1&gt;" style="text;html=1;whiteSpace=wrap;overflow=hidden;rounded=0;" vertex="1" parent="1">
          <mxGeometry x="330" y="800" width="540" height="100" as="geometry" />
        </mxCell>
        <mxCell id="1IXH5n6ofpuX0fbqJjtk-39" value="buf2_address" style="rounded=0;whiteSpace=wrap;html=1;" vertex="1" parent="1">
          <mxGeometry x="700" y="310" width="340" height="50" as="geometry" />
        </mxCell>
        <mxCell id="1IXH5n6ofpuX0fbqJjtk-40" value="buf2_address" style="rounded=0;whiteSpace=wrap;html=1;" vertex="1" parent="1">
          <mxGeometry x="700" y="210" width="340" height="50" as="geometry" />
        </mxCell>
        <mxCell id="1IXH5n6ofpuX0fbqJjtk-41" value="system_plt" style="rounded=0;whiteSpace=wrap;html=1;" vertex="1" parent="1">
          <mxGeometry x="700" y="260" width="340" height="50" as="geometry" />
        </mxCell>
        <mxCell id="1IXH5n6ofpuX0fbqJjtk-64" style="edgeStyle=orthogonalEdgeStyle;rounded=0;orthogonalLoop=1;jettySize=auto;html=1;" edge="1" parent="1" source="1IXH5n6ofpuX0fbqJjtk-43">
          <mxGeometry relative="1" as="geometry">
            <mxPoint x="1710" y="387.5" as="targetPoint" />
          </mxGeometry>
        </mxCell>
        <mxCell id="1IXH5n6ofpuX0fbqJjtk-43" value="" style="rounded=0;whiteSpace=wrap;html=1;fillColor=#f5f5f5;fontColor=#333333;strokeColor=#666666;" vertex="1" parent="1">
          <mxGeometry x="1210" y="165" width="340" height="445" as="geometry" />
        </mxCell>
        <mxCell id="1IXH5n6ofpuX0fbqJjtk-45" value="相当于" style="rounded=0;whiteSpace=wrap;html=1;" vertex="1" parent="1">
          <mxGeometry x="1060" y="360" width="120" height="60" as="geometry" />
        </mxCell>
        <mxCell id="1IXH5n6ofpuX0fbqJjtk-46" value="Stack" style="rounded=0;whiteSpace=wrap;html=1;fillColor=#f5f5f5;fontColor=#333333;strokeColor=#666666;" vertex="1" parent="1">
          <mxGeometry x="1210" y="160" width="340" height="50" as="geometry" />
        </mxCell>
        <mxCell id="1IXH5n6ofpuX0fbqJjtk-47" value="gets(s)&lt;div&gt;运行完毕&lt;br&gt;马上执行下一个返回地址&lt;/div&gt;" style="rounded=0;whiteSpace=wrap;html=1;fillColor=#f8cecc;strokeColor=#b85450;" vertex="1" parent="1">
          <mxGeometry x="1210" y="540" width="340" height="70" as="geometry" />
        </mxCell>
        <mxCell id="1IXH5n6ofpuX0fbqJjtk-48" value="s[100]" style="text;html=1;align=center;verticalAlign=middle;whiteSpace=wrap;rounded=0;" vertex="1" parent="1">
          <mxGeometry x="230" y="485" width="60" height="30" as="geometry" />
        </mxCell>
        <mxCell id="1IXH5n6ofpuX0fbqJjtk-49" value="s[100]" style="text;html=1;align=center;verticalAlign=middle;whiteSpace=wrap;rounded=0;" vertex="1" parent="1">
          <mxGeometry x="770" y="565" width="60" height="30" as="geometry" />
        </mxCell>
        <mxCell id="1IXH5n6ofpuX0fbqJjtk-50" value="EBP" style="text;html=1;align=center;verticalAlign=middle;whiteSpace=wrap;rounded=0;" vertex="1" parent="1">
          <mxGeometry x="770" y="490" width="60" height="30" as="geometry" />
        </mxCell>
        <mxCell id="1IXH5n6ofpuX0fbqJjtk-51" value="gets(buf2)&lt;div&gt;待执行&lt;/div&gt;" style="rounded=0;whiteSpace=wrap;html=1;fillColor=#dae8fc;strokeColor=#6c8ebf;" vertex="1" parent="1">
          <mxGeometry x="1210" y="470" width="340" height="70" as="geometry" />
        </mxCell>
        <mxCell id="1IXH5n6ofpuX0fbqJjtk-52" value="system(buf2)&lt;div&gt;待执行&lt;/div&gt;" style="rounded=0;whiteSpace=wrap;html=1;fillColor=#dae8fc;strokeColor=#6c8ebf;" vertex="1" parent="1">
          <mxGeometry x="1210" y="400" width="340" height="70" as="geometry" />
        </mxCell>
        <mxCell id="1IXH5n6ofpuX0fbqJjtk-53" value="Other" style="rounded=0;whiteSpace=wrap;html=1;fillColor=#d5e8d4;strokeColor=#82b366;" vertex="1" parent="1">
          <mxGeometry x="1210" y="210" width="340" height="190" as="geometry" />
        </mxCell>
        <mxCell id="1IXH5n6ofpuX0fbqJjtk-54" value="&lt;div style=&quot;color: rgb(255, 255, 255); background-color: rgb(45, 43, 85); font-family: &amp;quot;Fira Code&amp;quot;, Consolas, &amp;quot;Courier New&amp;quot;, monospace; font-size: 14px; line-height: 19px; white-space: pre;&quot;&gt;&lt;div&gt;&lt;br&gt;&lt;/div&gt;&lt;div&gt;io&lt;span style=&quot;color: #e1efff;&quot;&gt;.&lt;/span&gt;&lt;span style=&quot;color: #fad000;&quot;&gt;sendline&lt;/span&gt;&lt;span style=&quot;color: #e1efff;&quot;&gt;(&lt;/span&gt;&lt;span style=&quot;color: #92fc79;&quot;&gt;&quot;&lt;/span&gt;&lt;span style=&quot;color: #a5ff90;&quot;&gt;/bin/sh&lt;/span&gt;&lt;span style=&quot;color: #92fc79;&quot;&gt;&quot;&lt;/span&gt;&lt;span style=&quot;color: #e1efff;&quot;&gt;)&lt;/span&gt;&lt;/div&gt;&lt;br&gt;&lt;/div&gt;" style="text;html=1;whiteSpace=wrap;overflow=hidden;rounded=0;" vertex="1" parent="1">
          <mxGeometry x="1535" y="725" width="190" height="70" as="geometry" />
        </mxCell>
        <mxCell id="1IXH5n6ofpuX0fbqJjtk-56" value="buf2&lt;div&gt;目前内容为空&lt;/div&gt;" style="rounded=0;whiteSpace=wrap;html=1;fillColor=#fff2cc;strokeColor=#d6b656;" vertex="1" parent="1">
          <mxGeometry x="1320" y="220" width="120" height="60" as="geometry" />
        </mxCell>
        <mxCell id="1IXH5n6ofpuX0fbqJjtk-77" style="edgeStyle=orthogonalEdgeStyle;rounded=0;orthogonalLoop=1;jettySize=auto;html=1;" edge="1" parent="1" source="1IXH5n6ofpuX0fbqJjtk-57">
          <mxGeometry relative="1" as="geometry">
            <mxPoint x="2220" y="392.5" as="targetPoint" />
          </mxGeometry>
        </mxCell>
        <mxCell id="1IXH5n6ofpuX0fbqJjtk-57" value="" style="rounded=0;whiteSpace=wrap;html=1;fillColor=#f5f5f5;fontColor=#333333;strokeColor=#666666;" vertex="1" parent="1">
          <mxGeometry x="1710" y="170" width="340" height="445" as="geometry" />
        </mxCell>
        <mxCell id="1IXH5n6ofpuX0fbqJjtk-58" value="Stack" style="rounded=0;whiteSpace=wrap;html=1;fillColor=#f5f5f5;fontColor=#333333;strokeColor=#666666;" vertex="1" parent="1">
          <mxGeometry x="1710" y="165" width="340" height="50" as="geometry" />
        </mxCell>
        <mxCell id="1IXH5n6ofpuX0fbqJjtk-59" value="gets(s)&lt;div&gt;运行完毕，甚至栈中已经不存在&lt;br&gt;&lt;/div&gt;" style="rounded=0;whiteSpace=wrap;html=1;fillColor=#e1d5e7;strokeColor=#9673a6;" vertex="1" parent="1">
          <mxGeometry x="1710" y="545" width="340" height="70" as="geometry" />
        </mxCell>
        <mxCell id="1IXH5n6ofpuX0fbqJjtk-60" value="gets(buf2)&lt;div&gt;执行完毕，他把“/bin/sh”写入到了buf2中&lt;/div&gt;" style="rounded=0;whiteSpace=wrap;html=1;fillColor=#f8cecc;strokeColor=#b85450;" vertex="1" parent="1">
          <mxGeometry x="1710" y="475" width="340" height="70" as="geometry" />
        </mxCell>
        <mxCell id="1IXH5n6ofpuX0fbqJjtk-61" value="system(buf2)&lt;div&gt;待执行&lt;/div&gt;" style="rounded=0;whiteSpace=wrap;html=1;fillColor=#dae8fc;strokeColor=#6c8ebf;" vertex="1" parent="1">
          <mxGeometry x="1710" y="405" width="340" height="70" as="geometry" />
        </mxCell>
        <mxCell id="1IXH5n6ofpuX0fbqJjtk-62" value="Other" style="rounded=0;whiteSpace=wrap;html=1;fillColor=#d5e8d4;strokeColor=#82b366;" vertex="1" parent="1">
          <mxGeometry x="1710" y="215" width="340" height="190" as="geometry" />
        </mxCell>
        <mxCell id="1IXH5n6ofpuX0fbqJjtk-63" value="buf2&lt;div&gt;内容为&lt;/div&gt;&lt;div&gt;“&lt;span style=&quot;background-color: initial;&quot;&gt;/bin/sh&lt;/span&gt;&lt;span style=&quot;background-color: initial;&quot;&gt;”&lt;/span&gt;&lt;/div&gt;" style="rounded=0;whiteSpace=wrap;html=1;fillColor=#fff2cc;strokeColor=#d6b656;" vertex="1" parent="1">
          <mxGeometry x="1820" y="225" width="120" height="60" as="geometry" />
        </mxCell>
        <mxCell id="1IXH5n6ofpuX0fbqJjtk-65" value="buf2&lt;div&gt;目前内容为空&lt;/div&gt;" style="rounded=0;whiteSpace=wrap;html=1;fillColor=#fff2cc;strokeColor=#d6b656;" vertex="1" parent="1">
          <mxGeometry x="810" y="110" width="120" height="60" as="geometry" />
        </mxCell>
        <mxCell id="1IXH5n6ofpuX0fbqJjtk-66" value="buf2&lt;div&gt;目前内容为空&lt;/div&gt;" style="rounded=0;whiteSpace=wrap;html=1;fillColor=#fff2cc;strokeColor=#d6b656;" vertex="1" parent="1">
          <mxGeometry x="270" y="190" width="120" height="60" as="geometry" />
        </mxCell>
        <mxCell id="1IXH5n6ofpuX0fbqJjtk-67" value="执行命令" style="rounded=0;whiteSpace=wrap;html=1;" vertex="1" parent="1">
          <mxGeometry x="1570" y="363" width="120" height="60" as="geometry" />
        </mxCell>
        <mxCell id="1IXH5n6ofpuX0fbqJjtk-68" style="edgeStyle=orthogonalEdgeStyle;rounded=0;orthogonalLoop=1;jettySize=auto;html=1;entryX=0.5;entryY=0;entryDx=0;entryDy=0;" edge="1" parent="1" source="1IXH5n6ofpuX0fbqJjtk-67" target="1IXH5n6ofpuX0fbqJjtk-54">
          <mxGeometry relative="1" as="geometry" />
        </mxCell>
        <mxCell id="1IXH5n6ofpuX0fbqJjtk-69" value="" style="rounded=0;whiteSpace=wrap;html=1;fillColor=#f5f5f5;fontColor=#333333;strokeColor=#666666;" vertex="1" parent="1">
          <mxGeometry x="2220" y="173" width="340" height="445" as="geometry" />
        </mxCell>
        <mxCell id="1IXH5n6ofpuX0fbqJjtk-70" value="Stack" style="rounded=0;whiteSpace=wrap;html=1;fillColor=#f5f5f5;fontColor=#333333;strokeColor=#666666;" vertex="1" parent="1">
          <mxGeometry x="2220" y="168" width="340" height="50" as="geometry" />
        </mxCell>
        <mxCell id="1IXH5n6ofpuX0fbqJjtk-71" value="gets(s)&lt;div&gt;运行完毕，甚至栈中已经不存在&lt;br&gt;&lt;/div&gt;" style="rounded=0;whiteSpace=wrap;html=1;fillColor=#e1d5e7;strokeColor=#9673a6;" vertex="1" parent="1">
          <mxGeometry x="2220" y="548" width="340" height="70" as="geometry" />
        </mxCell>
        <mxCell id="1IXH5n6ofpuX0fbqJjtk-72" value="gets(buf2)&lt;div&gt;运行完毕，甚至栈中已经不存在&lt;br&gt;&lt;/div&gt;" style="rounded=0;whiteSpace=wrap;html=1;fillColor=#e1d5e7;strokeColor=#9673a6;" vertex="1" parent="1">
          <mxGeometry x="2220" y="478" width="340" height="70" as="geometry" />
        </mxCell>
        <mxCell id="1IXH5n6ofpuX0fbqJjtk-73" value="system(buf2)&lt;div&gt;相当于&lt;br&gt;&lt;div&gt;system(&quot;/bin/sh&quot;)&lt;/div&gt;&lt;/div&gt;" style="rounded=0;whiteSpace=wrap;html=1;fillColor=#dae8fc;strokeColor=#6c8ebf;" vertex="1" parent="1">
          <mxGeometry x="2220" y="408" width="340" height="70" as="geometry" />
        </mxCell>
        <mxCell id="1IXH5n6ofpuX0fbqJjtk-74" value="Other" style="rounded=0;whiteSpace=wrap;html=1;fillColor=#d5e8d4;strokeColor=#82b366;" vertex="1" parent="1">
          <mxGeometry x="2220" y="218" width="340" height="190" as="geometry" />
        </mxCell>
        <mxCell id="1IXH5n6ofpuX0fbqJjtk-75" value="buf2&lt;div&gt;内容为&lt;/div&gt;&lt;div&gt;“&lt;span style=&quot;background-color: initial;&quot;&gt;/bin/sh&lt;/span&gt;&lt;span style=&quot;background-color: initial;&quot;&gt;”&lt;/span&gt;&lt;/div&gt;" style="rounded=0;whiteSpace=wrap;html=1;fillColor=#fff2cc;strokeColor=#d6b656;" vertex="1" parent="1">
          <mxGeometry x="2330" y="228" width="120" height="60" as="geometry" />
        </mxCell>
        <mxCell id="1IXH5n6ofpuX0fbqJjtk-76" value="继续运行" style="rounded=0;whiteSpace=wrap;html=1;" vertex="1" parent="1">
          <mxGeometry x="2070" y="365.5" width="120" height="60" as="geometry" />
        </mxCell>
      </root>
    </mxGraphModel>
  </diagram>
</mxfile>
